ffmpeg version N-55863-g9f38fac053-static https://johnvansickle.com/ffmpeg/  Copyright (c) 2000-2021 the FFmpeg developers
  built with gcc 8 (Debian 8.3.0-6)
  configuration: --enable-gpl --enable-version3 --enable-static --disable-debug --disable-ffplay --disable-indev=sndio --disable-outdev=sndio --cc=gcc --enable-fontconfig --enable-frei0r --enable-gnutls --enable-gmp --enable-libgme --enable-gray --enable-libaom --enable-libfribidi --enable-libass --enable-libvmaf --enable-libfreetype --enable-libmp3lame --enable-libopencore-amrnb --enable-libopencore-amrwb --enable-libopenjpeg --enable-librubberband --enable-libsoxr --enable-libspeex --enable-libsrt --enable-libvorbis --enable-libopus --enable-libtheora --enable-libvidstab --enable-libvo-amrwbenc --enable-libvpx --enable-libwebp --enable-libx264 --enable-libx265 --enable-libxml2 --enable-libdav1d --enable-libxvid --enable-libzvbi --enable-libzimg
  libavutil      56. 64.100 / 56. 64.100
  libavcodec     58.119.100 / 58.119.100
  libavformat    58. 65.101 / 58. 65.101
  libavdevice    58. 11.103 / 58. 11.103
  libavfilter     7.100.100 /  7.100.100
  libswscale      5.  8.100 /  5.  8.100
  libswresample   3.  8.100 /  3.  8.100
  libpostproc    55.  8.100 / 55.  8.100
Input #0, mov,mp4,m4a,3gp,3g2,mj2, from '/home/yiaapc5/public_html/f_data/data_userfiles/user_uploads/3631926655/v/1613944320.mp4':
  Metadata:
    major_brand     : isom
    minor_version   : 0
    compatible_brands: mp41avc1
    creation_time   : 2021-02-21T21:49:48.000000Z
    playback_requirements: QuickTime 6.0 or greater
    playback_requirements-eng: QuickTime 6.0 or greater
    encoder         : vlc 3.0.11 stream output
    encoder-eng     : vlc 3.0.11 stream output
  Duration: 00:00:22.47, start: 0.000000, bitrate: 364 kb/s
    Stream #0:0(eng): Video: h264 (Constrained Baseline) (avc1 / 0x31637661), yuv420p, 480x360 [SAR 1:1 DAR 4:3], 259 kb/s, 30 fps, 30 tbr, 90k tbn, 60 tbc (default)
    Metadata:
      creation_time   : 2021-02-21T21:49:48.000000Z
      handler_name    : VideoHandler
      vendor_id       : [0][0][0][0]
    Stream #0:1(eng): Audio: aac (LC) (mp4a / 0x6134706D), 44100 Hz, stereo, fltp, 95 kb/s (default)
    Metadata:
      creation_time   : 2021-02-21T21:49:48.000000Z
      handler_name    : SoundHandler
      vendor_id       : [0][0][0][0]
Codec AVOption rc_eq (Set rate control equation. When computing the expression, besides the standard functions defined in the section 'Expression Evaluation', the following functions are available: bits2qp(bits), qp2bits(qp). Also the following constants are available: iTex pTex tex mv fCode iCount mcVar var isI isP isB avgQP qComp avgIITex avgPITex avgPPTex avgBPTex avgTex.) specified for output file #0 (/home/yiaapc5/public_html/f_data/data_userfiles/user_media/3631926655/v/189ff717214ef079c3dccd70fa457a30.mob.nomob.mp4) has not been used for any stream. The most likely reason is either wrong type (e.g. a video option with no video streams) or that it is a private option of some encoder which was not actually used for any stream.
Stream mapping:
  Stream #0:0 -> #0:0 (h264 (native) -> h264 (libx264))
  Stream #0:1 -> #0:1 (aac (native) -> aac (native))
Press [q] to stop, [?] for help
[libx264 @ 0x7198ec0] Application has requested 32 threads. Using a thread count greater than 16 is not recommended.
[libx264 @ 0x7198ec0] using SAR=46/45
[libx264 @ 0x7198ec0] frame MB size (30x23) > level limit (396)
[libx264 @ 0x7198ec0] VBV bitrate (10000) > level limit (768)
[libx264 @ 0x7198ec0] VBV buffer (10000) > level limit (2000)
[libx264 @ 0x7198ec0] MB rate (20700) > level limit (11880)
[libx264 @ 0x7198ec0] using cpu capabilities: MMX2 SSE2Fast SSSE3 SSE4.2 AVX
[libx264 @ 0x7198ec0] profile Constrained Baseline, level 1.3, 4:2:0, 8-bit
[libx264 @ 0x7198ec0] 264 - core 161 r3040 35417dc - H.264/MPEG-4 AVC codec - Copyleft 2003-2021 - http://www.videolan.org/x264.html - options: cabac=0 ref=1 deblock=1:0:0 analyse=0x1:0 me=hex subme=1 psy=1 psy_rd=1.00:0.00 mixed_ref=0 me_range=16 chroma_me=1 trellis=0 8x8dct=0 cqm=0 deadzone=21,11 fast_pskip=1 chroma_qp_offset=0 threads=32 lookahead_threads=2 sliced_threads=0 nr=0 decimate=1 interlaced=0 bluray_compat=0 constrained_intra=0 bframes=0 weightp=0 keyint=300 keyint_min=25 scenecut=40 intra_refresh=0 rc_lookahead=30 rc=abr mbtree=1 bitrate=365 ratetol=1.0 qcomp=0.60 qpmin=10 qpmax=51 qpstep=4 vbv_maxrate=10000 vbv_bufsize=10000 nal_hrd=none filler=0 ip_ratio=1.41 aq=1:1.00
Output #0, mp4, to '/home/yiaapc5/public_html/f_data/data_userfiles/user_media/3631926655/v/189ff717214ef079c3dccd70fa457a30.mob.nomob.mp4':
  Metadata:
    major_brand     : isom
    minor_version   : 0
    compatible_brands: mp41avc1
    encoder         : Lavf58.65.101
    playback_requirements: QuickTime 6.0 or greater
    playback_requirements-eng: QuickTime 6.0 or greater
    Stream #0:0(eng): Video: h264 (avc1 / 0x31637661), yuv420p(tv, progressive), 480x368 [SAR 46:45 DAR 4:3], q=2-31, 365 kb/s, 30 fps, 15360 tbn (default)
    Metadata:
      creation_time   : 2021-02-21T21:49:48.000000Z
      handler_name    : VideoHandler
      vendor_id       : [0][0][0][0]
      encoder         : Lavc58.119.100 libx264
    Side data:
      cpb: bitrate max/min/avg: 10000000/0/365000 buffer size: 10000000 vbv_delay: N/A
    Stream #0:1(eng): Audio: aac (LC) (mp4a / 0x6134706D), 44100 Hz, stereo, fltp, 95 kb/s (default)
    Metadata:
      creation_time   : 2021-02-21T21:49:48.000000Z
      handler_name    : SoundHandler
      vendor_id       : [0][0][0][0]
      encoder         : Lavc58.119.100 aac
frame=    1 fps=0.0 q=0.0 size=       0kB time=00:00:00.44 bitrate=   0.9kbits/s speed=22.8x    frame=  387 fps=0.0 q=25.0 size=     512kB time=00:00:13.33 bitrate= 314.5kbits/s speed=25.6x    frame=  674 fps=0.0 q=-1.0 Lsize=    1312kB time=00:00:22.43 bitrate= 479.0kbits/s speed=25.9x    
video:1027kB audio:265kB subtitle:0kB other streams:0kB global headers:0kB muxing overhead: 1.543649%
[libx264 @ 0x7198ec0] frame I:6     Avg QP:16.77  size: 13288
[libx264 @ 0x7198ec0] frame P:668   Avg QP:18.99  size:  1454
[libx264 @ 0x7198ec0] mb I  I16..4: 37.9%  0.0% 62.1%
[libx264 @ 0x7198ec0] mb P  I16..4:  1.1%  0.0%  0.0%  P16..4: 31.1%  0.0%  0.0%  0.0%  0.0%    skip:67.8%
[libx264 @ 0x7198ec0] final ratefactor: 20.58
[libx264 @ 0x7198ec0] coded y,uvDC,uvAC intra: 42.2% 44.7% 19.0% inter: 10.7% 5.4% 0.1%
[libx264 @ 0x7198ec0] i16 v,h,dc,p: 48% 33% 14%  5%
[libx264 @ 0x7198ec0] i4 v,h,dc,ddl,ddr,vr,hd,vl,hu: 29% 26%  8%  7%  5%  5%  6%  6%  7%
[libx264 @ 0x7198ec0] i8c dc,h,v,p: 44% 26% 22%  9%
[libx264 @ 0x7198ec0] kb/s:374.28
[aac @ 0x71e2000] Qavg: 250.592
